<svg xmlns="http://www.w3.org/2000/svg" xml:space="preserve" style="enable-background:new 0 0 63.288 63.288" viewBox="0 0 63.288 63.288"><path d="M56.365 50.648c-.394 0-.787-.154-1.082-.461-.574-.597-.555-1.547.043-2.12 3.094-2.974 4.76-7.01 4.817-11.673.091-7.468-4.693-13.724-11.635-15.215-5.81-1.246-11.461.649-15.111 5.074-.424.513-1.134.685-1.743.426-1.604-.68-3.263-1.025-4.934-1.025-5.239 0-9.855 3.154-11.761 8.034-.269.693-1.009 1.082-1.728.918-1.856-.42-4.366-.538-7.336 2.301-1.782 1.705-2.76 3.827-2.751 5.974.005 1.207.274 2.364.803 3.439.365.743.057 1.642-.686 2.007-.745.366-1.642.059-2.008-.685C.524 46.156.151 44.558.144 42.893c-.012-2.978 1.294-5.874 3.678-8.154 2.7-2.581 5.601-3.656 8.836-3.273 2.598-5.393 7.993-8.812 14.062-8.812 1.72 0 3.425.292 5.083.869 4.337-4.647 10.882-6.663 17.334-5.277 8.223 1.765 14.112 9.413 14.006 18.185-.067 5.484-2.052 10.256-5.739 13.799-.291.279-.665.418-1.039.418zM33.371 8.345c-.204 0-.411-.042-.608-.129-.758-.337-1.098-1.224-.763-1.98L34.374.892c.335-.757 1.221-1.099 1.979-.762.758.336 1.099 1.223.763 1.98l-2.373 5.343c-.249.559-.797.892-1.372.892zM10.223 17.258c-.203 0-.41-.042-.607-.129l-5.344-2.373c-.758-.336-1.099-1.223-.763-1.979.336-.757 1.223-1.099 1.98-.763l5.343 2.372c.758.337 1.099 1.223.763 1.98-.248.56-.797.892-1.372.892zM43.059 16.19c-.602 0-1.17-.366-1.399-.962-.298-.773.087-1.641.86-1.939l4.084-1.573c.769-.296 1.641.087 1.938.861.298.773-.086 1.641-.86 1.939l-4.084 1.573c-.177.068-.359.101-.539.101zM4.256 31.131c-.602 0-1.17-.366-1.399-.961-.298-.774.087-1.641.86-1.94l5.106-1.966c.768-.297 1.64.088 1.938.861.298.774-.087 1.641-.86 1.939L4.795 31.03c-.176.068-.359.101-.539.101zM19.881 9.285c-.602 0-1.17-.365-1.399-.962l-2.359-6.126c-.298-.773.086-1.642.86-1.939.768-.296 1.641.087 1.938.861l2.36 6.126c.298.774-.087 1.641-.861 1.939-.176.069-.359.101-.539.101z"/><path d="M14.829 32.162c-.171 0-.346-.029-.516-.092-.384-.141-1.183-.433-2.541-3.488-1.519-3.94-1.413-8.157.269-11.947 1.683-3.79 4.741-6.697 8.61-8.187 3.87-1.49 8.087-1.384 11.876.299 3.79 1.682 6.697 4.74 8.186 8.609.298.773-.087 1.641-.86 1.939-.775.297-1.642-.088-1.938-.861-1.203-3.122-3.548-5.588-6.605-6.945s-6.46-1.443-9.581-.241c-3.122 1.202-5.588 3.547-6.945 6.605-1.358 3.056-1.444 6.459-.242 9.58.334.745.833 1.657 1.072 1.95.596.366.873 1.112.624 1.794-.223.607-.798.985-1.409.985zM48.969 44.686c-.207 0-.417-.043-.618-.134-.755-.342-1.089-1.23-.747-1.985l1.095-2.417c.342-.754 1.229-1.089 1.985-.747.755.342 1.089 1.231.747 1.985l-1.095 2.416c-.251.555-.796.882-1.367.882zM39.395 44.686c-.207 0-.417-.043-.617-.134-.755-.341-1.09-1.23-.748-1.985l1.093-2.416c.341-.755 1.233-1.09 1.985-.748.755.341 1.09 1.23.748 1.984l-1.094 2.417c-.25.554-.796.882-1.367.882zM29.821 44.686c-.207 0-.417-.043-.617-.134-.755-.341-1.09-1.23-.748-1.985l1.093-2.416c.341-.755 1.232-1.09 1.985-.748.755.341 1.089 1.23.748 1.984l-1.094 2.417c-.25.554-.796.882-1.367.882zM20.246 44.686c-.207 0-.417-.043-.619-.134-.755-.342-1.088-1.23-.747-1.985l1.095-2.417c.342-.754 1.229-1.089 1.985-.747.755.342 1.089 1.231.748 1.985l-1.095 2.416c-.251.555-.796.882-1.367.882zM10.671 44.686c-.207 0-.417-.043-.618-.134-.755-.342-1.089-1.23-.747-1.985l1.095-2.417c.342-.754 1.228-1.089 1.985-.747.755.342 1.089 1.231.747 1.985l-1.094 2.416c-.251.555-.796.882-1.368.882zM41.31 54.534c-.207 0-.417-.043-.617-.134-.755-.342-1.09-1.23-.748-1.985l1.094-2.416c.34-.755 1.231-1.09 1.984-.748.755.342 1.09 1.23.748 1.985l-1.094 2.417c-.25.553-.796.881-1.367.881zM31.735 54.534c-.207 0-.417-.043-.618-.134-.755-.342-1.089-1.231-.747-1.986l1.094-2.416c.342-.755 1.23-1.09 1.986-.747.755.342 1.089 1.231.747 1.986l-1.095 2.416c-.251.554-.796.881-1.367.881zM22.161 54.534c-.207 0-.417-.043-.619-.134-.754-.342-1.088-1.231-.747-1.986l1.095-2.416c.342-.755 1.229-1.09 1.985-.747.755.342 1.089 1.231.748 1.986l-1.095 2.416c-.251.554-.796.881-1.367.881zM12.586 54.534c-.207 0-.417-.043-.617-.134-.755-.342-1.09-1.23-.748-1.985l1.094-2.416c.34-.755 1.232-1.09 1.984-.748.755.342 1.09 1.23.748 1.985l-1.093 2.417c-.25.553-.796.881-1.368.881zM32.556 63.288c-.207 0-.417-.043-.617-.134-.755-.342-1.09-1.23-.748-1.985l1.094-2.416c.34-.756 1.231-1.09 1.984-.748.755.341 1.09 1.23.748 1.985l-1.094 2.416c-.25.554-.796.882-1.367.882zM22.982 63.288c-.207 0-.417-.043-.617-.134-.755-.342-1.09-1.23-.748-1.985l1.093-2.416c.341-.756 1.233-1.09 1.985-.748.755.341 1.09 1.23.748 1.985l-1.094 2.416c-.25.554-.796.882-1.367.882zM13.407 63.288c-.207 0-.417-.043-.618-.134-.755-.342-1.089-1.23-.748-1.985l1.095-2.417c.342-.755 1.229-1.089 1.986-.747.754.341 1.088 1.231.747 1.985l-1.095 2.417c-.251.554-.796.881-1.367.881z"/></svg>